PathFileType	4	(X/Y/Z)	/home/abdul/Desktop/myosuite/custom_workspace/IK/output/S5_12_2.trc
DataRate	CameraRate	NumFrames	NumMarkers	Units	OrigDataRate	OrigDataStartFrame	OrigNumFrames
200.0	200.0	27	3	mm	200.0	1222	1396
Frame#	Time	V_Shoulder			V_Elbow			V_Wrist		
		X1	Y1	Z1	X2	Y2	Z2	X3	Y3	Z3

1222	6.105	-7.670205931601772	731.8443657822066	243.9620573910466	-138.45204475607272	557.053922412327	21.861114105696455	-116.02416944714882	311.3668456507452	26.872010066651512
1223	6.11	-7.6856822228095885	731.8172105438775	243.79050577628513	-138.52170201368557	557.040641549313	21.810904241544595	-116.04104797021668	311.36838153899413	26.80774680639574
1224	6.115	-7.700708001748622	731.7900452747449	243.61712640601743	-138.59385847573884	557.0269687474238	21.761980610894376	-116.06340710474555	311.36861593812074	26.74426953202903
1225	6.12	-7.71532507193947	731.7628632522586	243.44201587461666	-138.6683392925363	557.0129921448055	21.71418869570022	-116.09091614745788	311.3676691657978	26.681592004188886
1226	6.125	-7.729574936428032	731.735657372568	243.2652748371901	-138.74496761502832	556.9987965594426	21.667379890221724	-116.12324327019843	311.36565817051996	26.61973521982344
1227	6.13	-7.743498740800554	731.7084201478234	243.08700780879408	-138.8235651815558	556.984463287884	21.62141180188192	-116.16005657308102	311.36269626433864	26.55872675874228
1228	6.135	-7.75713721867907	731.6811437057158	242.90732295230535	-138.90395289499875	556.9700699262967	21.576148511296186	-116.20102510113497	311.35889288322187	26.498600135072646
1229	6.14	-7.770530639735116	731.6538197913484	242.72633185559937	-138.98595138853526	556.9556902137072	21.531460791994192	-116.24581982256967	311.3543533746587	26.439394156212643
1230	6.145	-7.783718760248459	731.6264397715287	242.544149298722	-139.06938157830206	556.9413938971977	21.487226290544555	-116.29411456693714	311.34917881203825	26.3811522917185
1231	6.15	-7.796740776226797	731.5989946415589	242.36089301177708	-139.15406520133436	556.9272466187508	21.443329667967834	-116.34558692163448	311.3434658352498	26.323922054403106
1232	6.155	-7.809635279091846	731.5714750345857	242.1766834242848	-139.2398253372559	556.913309823349	21.399662703488012	-116.3999190853506	311.3373065168731	26.26775439575897
1233	6.16	-7.822440213927034	731.5438712335671	241.99164340679624	-139.32648691228624	556.8996406878694	21.356124361824744	-116.45679867722262	311.33078825325777	26.2127031176515
1234	6.165	-7.835192840272163	731.5161731858949	241.80589800557505	-139.4138771842292	556.8862920702429	21.312620825368192	-116.51591950062937	311.32399367972397	26.158824302059287
1235	6.17	-7.847929695441088	731.4883705207008	241.61957417118197	-139.50182620720912	556.8733124782855	21.269065492704776	-116.57698226070971	311.3170006090605	26.106175760467746
1236	6.175	-7.8606865603294525	731.460452568862	241.43280048181737	-139.5901672750242	556.8607460575495	21.225378945075597	-116.63969523485218	311.3098819924396	26.054816504351866
1237	6.18	-7.873498427671064	731.4324083857067	241.2457068622942	-139.6787373420915	556.8486325974955	21.18148888244897	-116.70377489556127	311.3027059018239	26.004806238014446
1238	6.185	-7.886399472693572	731.4042267764036	241.05842429952736	-139.76737742106369	556.8370075552305	21.13733003097517	-116.76894648526115	311.2955355328974	25.956204874878182
1239	6.19	-7.899423026116622	731.3758963240124	240.8710845554361	-139.8559329563072	556.8259020960231	21.092844023664277	-116.83494454275316	311.2884292275178	25.909072078164904
1240	6.195	-7.912601549428835	731.3474054201488	240.6838198781627	-139.94425417253612	556.8153431497645	21.04797925618765	-116.9015133811945	311.28144051465654	25.863466826733475
1241	6.2	-7.925966612373668	731.3187422982078	240.4967627125133	-140.03219639800662	556.8053534825136	21.00269071974985	-116.96840751761607	311.27461816876803	25.81944700669035
1242	6.205	-7.9395488725685155	731.2898950690748	240.3100454105278	-140.1196203617833	556.7959517822386	20.956939813011232	-117.03539205414407	311.26800628451014	25.77706902923406
1243	6.21	-7.95337805717629	731.2608517592365	240.12379994308148	-140.2063924646954	556.7871527578435	20.91069413506214	-117.10224301123367	311.26164436672354	25.736387475047962
1244	6.215	-7.967482946544287	731.2316003511911	239.9381576134133	-140.292385023707	556.778967250551	20.863927261458038	-117.16874761336314	311.2555674345666	25.6974547654144
1245	6.22	-7.98189135972127	731.2021288260397	239.75324877346807	-140.37747648953	556.7714023567007	20.816618505321408	-117.23470452777363	311.2498061386982	25.660320860089094
1246	6.225	-7.996630141760491	731.1724252081327	239.56920254392298	-140.46155163741014	556.7644615610127	20.768752665501527	-117.29992405697186	311.24438689040164	25.62503298184741
1247	6.23	-8.01172515271378	731.1424776116261	239.3861465387538	-140.54450173111803	556.7581448793626	20.720319763757548	-117.36422828584045	311.23933200154306	25.591635367494053
1248	6.235	-8.027201258219826	731.1122742887904	239.2042065951761	-140.6262246602737	556.7524490101141	20.671314772894462	-117.42745118432379	311.2346598342697	25.560169045015947
